<!DOCTYPE svg PUBLIC "-//W3C//DTD SVG 20010904//EN" "http://www.w3.org/TR/2001/REC-SVG-20010904/DTD/svg10.dtd">
<svg version="1.0" xmlns="http://www.w3.org/2000/svg" width="500px" height="500px" viewBox="0 0 5000 5000" preserveAspectRatio="xMidYMid meet">
<g id="layer1" fill="#c1c1bf" stroke="none">
 <path d="M490 4918 c0 -274 76 -591 204 -853 204 -419 537 -749 949 -940 59 -28 107 -52 107 -55 0 -3 -50 -43 -110 -88 -272 -206 -457 -507 -527 -858 -24 -123 -24 -385 0 -508 69 -344 253 -649 513 -847 122 -93 210 -145 337 -199 342 -145 732 -145 1074 0 448 190 754 567 850 1046 24 123 24 385 0 508 -53 266 -171 500 -355 705 -34 38 -111 107 -172 153 -60 45 -110 85 -110 88 0 3 53 30 117 60 222 104 476 293 625 465 324 373 494 792 515 1268 l6 137 -2011 0 -2012 0 0 -82z"/>
 </g>

</svg>